<svg xmlns="http://www.w3.org/2000/svg" viewBox="0 0 285 319" fill="#c2c2c2"><path d="M174 71.6c.4-11.7-2-23.7 7.9-32.7 5.4-5 11.9-6.9 19.2-7 10.7-.2 20.6.7 27.8 10 6.9 8.9 4.6 19.4 5.3 30.1h17.4c14.2.1 22.4 8.2 22.4 22.2v195.5c0 13.8-8.3 22.2-22 22.2H36c-13.5 0-22-8.3-22-21.7V93.7c0-13.4 8.4-21.6 21.9-21.7h18V58.3c.2-15.8 10.7-25.5 26.4-26.5C104.2 30.4 116 43 114 65.3c-.2 2 0 4 0 6.3h60zm-35.2 115.7H89.4v49.4h49.4v-49.4zm60 49.5v-49.5h-49.4v49.5h49.4zM89.2 176.6h49.4v-44.4H89.2v44.4zm60.2-44.5v44.6h49.4v-44.6h-49.4zm-115 55v49.6h44.4v-49.6H34.4zm219.3 49.7v-49.4h-44.5v49.4h44.5zM89.2 291.6h49.6v-44.4H89.2v44.4zm109.5.2v-44.4h-49.5v44.4h49.5zM78.8 132.3H34.4v44.5h44.4v-44.5zm174.9 44.6v-44.6h-44.3v44.6h44.3zM78.8 247.3H34.4v44.4h44.4v-44.4zm130.4 44.4h44.5v-44.4h-44.5v44.4zM74 79.5v15c0 12.7 0 12.7 12.7 12.6 5.7-.1 7.3-1.6 7.4-7.4V64.8c0-13.1-.1-13.1-13.5-12.8-4.6 0-6.7 2-6.6 6.6.1 6.9 0 13.9 0 20.9zm120-.4V95c0 12.1 0 12.1 12.3 12 6.3-.1 7.7-1.5 7.8-8V65.1c0-13.5-.1-13.6-13.5-13.2-4.6.1-6.6 2.2-6.5 6.8-.1 6.8-.1 13.6-.1 20.4z"/></svg>