<svg xmlns="http://www.w3.org/2000/svg" viewBox="0 0 219.8 220.5" fill="#c2c2c2"><path d="M166 220.5c-7.4-1.7-14.9-3.1-22.3-5.2-36.7-10.6-66.8-31.5-92.5-59.4-12.6-13.7-24.6-27.7-32.7-44.5-8-16.5-15.6-33.3-18-51.6-2.7-20.6 5-38.2 19.7-52.2C27.5.7 37.8-.1 47.5 0c2.1 0 4.8 2.9 6.1 5.1 4.8 8 9 16.3 13.7 24.4 3.1 5.3 6.4 10.5 9.7 15.7 4 6.5 4 9.3-1.3 14.6-5.4 5.5-11.5 10.1-17.2 15.2-8.3 7.3-8.3 9.6-3.2 19.2 16.4 30.5 39.9 53.9 70.4 70.2 9 4.8 11.5 4.7 18.4-3.1 4.5-5.1 8.7-10.5 13.3-15.6 6.9-7.5 10-7.5 18.6-2.3 11.8 7.1 23.9 13.9 35.9 20.7 8.1 4.6 8.8 6 7.2 15.2-3.8 21.4-18.5 35-42.5 39.1-3.4.6-6.9.9-10.4 1.3-.1.3-.1.6-.2.8z"/></svg>