<svg xmlns="http://www.w3.org/2000/svg" viewBox="0 0 260 271" fill="#c2c2c2"><path d="M130.8 251.9H64.3c-9.5 0-18.6-1.6-26.7-6.9-10-6.6-15.6-16.2-16.2-27.9-1.2-24 1.2-47.6 12.5-69.5 7.1-13.8 18.2-22.6 33.9-25.1 5-.8 9.3-.1 13.7 2.7 6.8 4.4 13.7 9.1 21.1 12.3 23.6 10.2 46.4 7.5 68.2-5.9 1.4-.9 2.7-2 4.2-2.7 4.8-2.3 9.6-6.1 14.6-6.5 8.8-.7 17 2.8 24.1 8.1 9.5 7 15.2 16.7 19 27.6 6.9 19.9 9.9 40.5 7.3 61.5-2.2 17.7-15 29.8-32.9 31.6-10.6 1-21.3.7-31.9.8-14.8 0-29.6-.1-44.4-.1z"/><path d="M191 72.3c-.1 33.1-27.3 59.9-60.4 59.6-33-.3-59.6-27.2-59.5-60.1.1-33.3 27.1-60 60.2-59.8 33.2.2 59.8 27.1 59.7 60.3z"/></svg>