<svg xmlns="http://www.w3.org/2000/svg" viewBox="0 0 120 199.9" fill="#c2c2c2">
	<path d="M0 99.6V23.1C0 7.9 7.9 0 23.1 0h74.5C111.8 0 120 8.2 120 22.3v155.5c0 13.8-8.3 22.1-22.1 22.1h-76C8.4 199.9.1 191.5 0 178.1V99.6zm105-.1V47.6c0-6.2-1.4-7.6-7.7-7.6H22.9c-6.6 0-8 1.3-8 7.8v104.4c0 6.5 1.4 7.9 7.9 7.9h74.4c6.2 0 7.7-1.4 7.7-7.6.1-17.7.1-35.4.1-53zm-32.5 81.2c.4-6.8-5.1-12.9-12-13.3-6.6-.3-12.5 5-12.9 11.8-.5 6.9 5 12.9 12 13.2 6.5.3 12.4-5 12.9-11.7zM59.8 25c4 0 8 .2 11.9-.1 1.1-.1 2.2-1.8 3.2-2.7-1.1-.7-2.2-2.1-3.3-2.1-7.8-.2-15.6-.2-23.4 0-1.1 0-2.1 1.4-3.2 2.2 1.1.9 2.1 2.6 3.3 2.7 3.8.2 7.7 0 11.5 0z" />
</svg>
